<svg width="240" height="160" viewBox="0 0 240 160" fill="none" xmlns="http://www.w3.org/2000/svg">
  <rect width="240" height="160" rx="32" fill="#FEF5E6"/>
  <path d="M36 60c12-18 32-28 54-24 12 2 24 10 28 22 3 12-4 24-16 28-8 3-18 2-24-4l-14 28-16-6 14-26c-10-2-22-8-26-18z" fill="#F97316" opacity="0.3"/>
  <path d="M170 40c16 12 24 34 16 52-8 18-30 28-48 24-12-2-20-10-20-20 0-8 6-16 14-18 8-2 16 0 22 6l10-16h18l-8-28h-4z" fill="#EA580C" opacity="0.22"/>
  <path d="M84 32c6-8 14-14 24-16 10-2 22 0 30 6" stroke="#F97316" stroke-width="5" stroke-linecap="round" opacity="0.35"/>
  <path d="M170 106c-8 8-18 12-30 10" stroke="#B45309" stroke-width="5" stroke-linecap="round" opacity="0.25"/>
</svg>
