<svg width="240" height="120" viewBox="0 0 240 120" fill="none" xmlns="http://www.w3.org/2000/svg">
  <!-- Cornucopia base -->
  <path d="M20 80 Q15 75, 10 85 Q12 95, 20 100 Q25 105, 30 100 Q35 95, 38 90 Q35 85, 30 85 Q25 85, 20 80 Z" fill="#92400E" opacity="0.9"/>
  <path d="M10 85 Q12 95, 20 100 Q25 105, 30 100 Q35 95, 38 90 Q35 85, 30 85 Q25 85, 20 80 Q15 75, 10 85" stroke="#78350F" stroke-width="2" fill="#B45309"/>
  
  <!-- Cornucopia opening -->
  <ellipse cx="35" cy="88" rx="12" ry="8" fill="#451A03"/>
  <ellipse cx="35" cy="88" rx="10" ry="6" fill="#92400E"/>
  
  <!-- Pumpkins flowing out -->
  <ellipse cx="55" cy="75" rx="18" ry="20" fill="#DC2626"/>
  <path d="M45 75 Q55 65, 65 75" stroke="#B91C1C" stroke-width="2" fill="none"/>
  <path d="M50 70 Q55 65, 60 70" stroke="#78350F" stroke-width="1.5" fill="none"/>
  <path d="M52 80 Q55 75, 58 80" stroke="#78350F" stroke-width="1.5" fill="none"/>
  
  <ellipse cx="85" cy="68" rx="16" ry="18" fill="#EA580C"/>
  <path d="M77 68 Q85 60, 93 68" stroke="#DC2626" stroke-width="2" fill="none"/>
  
  <!-- Fall leaves -->
  <path d="M105 55 Q110 50, 115 60 Q112 65, 108 62 Q105 58, 105 55" fill="#B91C1C" opacity="0.9"/>
  <path d="M110 60 Q115 55, 120 65 Q117 70, 113 67 Q110 63, 110 60" fill="#EA580C" opacity="0.9"/>
  
  <path d="M125 50 Q130 45, 135 55 Q132 60, 128 57 Q125 53, 125 50" fill="#DC2626" opacity="0.9"/>
  <path d="M130 58 Q135 53, 140 63 Q137 68, 133 65 Q130 61, 130 58" fill="#B91C1C" opacity="0.8"/>
  
  <!-- Small pumpkins/gourds -->
  <ellipse cx="155" cy="65" rx="10" ry="12" fill="#EA580C"/>
  <path d="M150 65 Q155 60, 160 65" stroke="#DC2626" stroke-width="1.5" fill="none"/>
  
  <ellipse cx="175" cy="72" rx="8" ry="10" fill="#F59E0B"/>
  <path d="M171 72 Q175 68, 179 72" stroke="#EA580C" stroke-width="1.2" fill="none"/>
  
  <!-- Wheat stalks -->
  <path d="M195 45 L195 60 M195 50 L198 48 M195 50 L192 48 M195 55 L198 53 M195 55 L192 53" stroke="#FACC15" stroke-width="2" stroke-linecap="round"/>
  <circle cx="195" cy="45" r="3" fill="#FBBF24"/>
  
  <path d="M210 50 L210 65 M210 55 L213 53 M210 55 L207 53 M210 60 L213 58 M210 60 L207 58" stroke="#FACC15" stroke-width="2" stroke-linecap="round"/>
  <circle cx="210" cy="50" r="3" fill="#FBBF24"/>
  
  <!-- Grapes -->
  <circle cx="160" cy="55" r="4" fill="#78350F"/>
  <circle cx="165" cy="53" r="4" fill="#92400E"/>
  <circle cx="162" cy="50" r="4" fill="#78350F"/>
  <circle cx="167" cy="57" r="4" fill="#92400E"/>
  
  <!-- Autumn berries/leaves scattered -->
  <circle cx="80" cy="45" r="3" fill="#B91C1C"/>
  <circle cx="95" cy="40" r="2.5" fill="#DC2626"/>
  <circle cx="145" cy="50" r="2.5" fill="#EA580C"/>
  
  <!-- Maple leaves -->
  <path d="M180 40 Q185 35, 188 42 Q186 45, 183 43 Q180 41, 180 40" fill="#B91C1C" opacity="0.8"/>
  <path d="M200 35 Q205 30, 208 37 Q206 40, 203 38 Q200 36, 200 35" fill="#EA580C" opacity="0.8"/>
</svg>
