<svg width="96" height="96" viewBox="0 0 96 96" fill="none" xmlns="http://www.w3.org/2000/svg">
  <rect width="96" height="96" rx="24" fill="#2B1B10"/>
  <path d="M48 28c-8.6 0-16 7.4-16 18 0 2 .2 4 .8 5.8-5 2.4-8.8 7.4-8.8 13.2 0 8.4 7.6 14.8 17.2 14.8 6.4 0 10.8-2.4 13-5.4 1.8 3 5.8 5.4 11.2 5.4 8 0 14.6-6.6 14.6-14.6 0-7.4-4.8-12.8-11.2-15.2.4-1.6.6-3.2.6-4.8 0-10.6-7.4-18-16-18-1.8 0-3.6.4-5.4 1.2-1.8-.8-3.6-1.2-5-1.2z" fill="#B45309"/>
  <path d="M40 46c4.2 2.2 11.6 2.2 15.8 0" stroke="#78350F" stroke-width="4" stroke-linecap="round"/>
  <path d="M57.2 35.6c1.8-2.6 4.6-4.2 7.8-4.2 5.2 0 9.4 4.2 9.4 11.2 0 1.6-.3 3.4-.9 5.2-5.5-1.6-12.6-2.6-20.3-2.6-1.6 0-3.1.1-4.6.1 2-4.4 5.2-7.4 8.6-9.7z" fill="#EA580C"/>
  <circle cx="60" cy="42" r="4" fill="#0B0905"/>
  <circle cx="70" cy="42" r="4" fill="#0B0905"/>
  <path d="M66 42c0 4 1.5 6 2.6 6 1 0 2.2-1.4 2.6-3 .4-1.8-1-3-2.6-3h-2.6z" fill="#FACC15"/>
  <path d="M38 68c6 3.6 14 3.6 20 0" stroke="#1C0F05" stroke-width="4" stroke-linecap="round"/>
  <path d="M32 57c3-5.4 8-9.4 16-9.4 8 0 13 4 16 9.4-8.8 1-16.6 1-32 0z" fill="#F59E0B" opacity="0.3"/>
</svg>
