<svg xmlns="http://www.w3.org/2000/svg" width="64" height="64" viewBox="0 0 64 64" role="img" aria-labelledby="title">
  <title id="title">Envitefy mark</title>
  <rect width="64" height="64" rx="20" fill="#25172d"/>
  <path d="M17.8 38.1c3.1 4.2 7.5 6.3 13.2 6.3 5.4 0 9.6-1.8 12.7-5.5l-3.9-4.4c-2.2 2.5-5 3.8-8.3 3.8-3.6 0-6.4-1.2-8.4-3.5-1-1.2-1.7-2.6-2-4.3h24.1c.2-1.1.3-2.1.3-3 0-4.8-1.4-8.7-4.3-11.6-2.8-2.9-6.6-4.4-11.3-4.4-4.9 0-8.9 1.6-12 4.9-3.1 3.2-4.6 7.2-4.6 12 0 3.8 1.5 7.1 4.5 9.7Zm12-20.5c2.6 0 4.7.7 6.3 2.2 1.6 1.5 2.5 3.4 2.7 5.8H21.1c.4-2.4 1.4-4.4 3-5.8 1.6-1.5 3.5-2.2 5.7-2.2Z" fill="#ffffff"/>
</svg>
