<svg width="240" height="160" viewBox="0 0 240 160" fill="none" xmlns="http://www.w3.org/2000/svg">
  <rect width="240" height="160" rx="32" fill="#0F172A"/>
  <g stroke-linecap="round" stroke-width="5">
    <path d="M70 50l-12-12" stroke="#F87171"/>
    <path d="M70 50l12-12" stroke="#F87171"/>
    <path d="M70 50l-12 12" stroke="#F87171"/>
    <path d="M70 50l12 12" stroke="#F87171"/>
    <path d="M70 50v20" stroke="#F87171"/>
    <path d="M70 50H50" stroke="#F87171"/>
  </g>
  <g stroke-linecap="round" stroke-width="5">
    <path d="M162 42l-10-10" stroke="#60A5FA"/>
    <path d="M162 42l10-10" stroke="#60A5FA"/>
    <path d="M162 42l-10 10" stroke="#60A5FA"/>
    <path d="M162 42l10 10" stroke="#60A5FA"/>
    <path d="M162 42v18" stroke="#60A5FA"/>
    <path d="M162 42h-18" stroke="#60A5FA"/>
  </g>
  <g stroke-linecap="round" stroke-width="4">
    <path d="M120 106l-8-8" stroke="#93C5FD"/>
    <path d="M120 106l8-8" stroke="#93C5FD"/>
    <path d="M120 106l-8 8" stroke="#93C5FD"/>
    <path d="M120 106l8 8" stroke="#93C5FD"/>
    <path d="M120 106v14" stroke="#93C5FD"/>
    <path d="M120 106h-14" stroke="#93C5FD"/>
  </g>
  <circle cx="50" cy="112" r="12" fill="#60A5FA" opacity="0.3"/>
  <circle cx="188" cy="108" r="14" fill="#F87171" opacity="0.25"/>
  <circle cx="104" cy="36" r="10" fill="#FACC15" opacity="0.4"/>
</svg>
