<svg width="96" height="96" viewBox="0 0 96 96" fill="none" xmlns="http://www.w3.org/2000/svg">
  <rect width="96" height="96" rx="24" fill="#111827"/>
  <path d="M48 22c-4.4 0-8 3.6-8 8v3.2c-11.6 2.4-20 12.6-20 25.2 0 14.2 11.8 26 28 26s28-11.8 28-26c0-12.6-8.4-22.8-20-25.2V30c0-4.4-3.6-8-8-8z" fill="#F87171"/>
  <path d="M40 34c14 6 26 6 36 0" stroke="#FDBA74" stroke-width="4" stroke-linecap="round"/>
  <path d="M32 50c18 10 34 10 48 0" stroke="#FCD34D" stroke-width="4" stroke-linecap="round"/>
  <path d="M44 22h8v-5c0-2.8-2.2-5-5-5h-6v6c0 2.2 1.8 4 4 4z" fill="#1D4ED8"/>
  <circle cx="38" cy="56" r="5" fill="#38BDF8"/>
  <circle cx="58" cy="64" r="6" fill="#FBBF24"/>
  <circle cx="50" cy="74" r="4" fill="#F9A8D4"/>
</svg>
