<svg width="96" height="96" viewBox="0 0 96 96" fill="none" xmlns="http://www.w3.org/2000/svg">
  <rect width="96" height="96" rx="24" fill="#1E1B4B"/>
  <path d="M36 22c-6 0-10 6.4-8.4 13.6 1.4 6.4 7.2 18.2 8.8 21.2h3.6c2.4-4.8 6.4-16.4 6.4-24.4C46.4 26.4 41.8 22 36 22z" fill="#F472B6"/>
  <path d="M60 22c-5.8 0-10.4 4.4-10.4 10.4 0 8 4 19.6 6.4 24.4h3.6c1.6-3 7.4-14.8 8.8-21.2C70 28.4 66 22 60 22z" fill="#818CF8"/>
  <ellipse cx="48" cy="62" rx="22" ry="20" fill="#F1F5F9"/>
  <circle cx="40" cy="58" r="3" fill="#111827"/>
  <circle cx="56" cy="58" r="3" fill="#111827"/>
  <path d="M46 66c2-1.6 4-1.6 6 0" stroke="#F472B6" stroke-width="4" stroke-linecap="round"/>
  <path d="M40 74c4 3.2 12 3.2 16 0" stroke="#A855F7" stroke-width="4" stroke-linecap="round"/>
</svg>
