<svg width="240" height="160" viewBox="0 0 240 160" fill="none" xmlns="http://www.w3.org/2000/svg">
  <rect width="240" height="160" rx="32" fill="#281B5A"/>
  <ellipse cx="72" cy="86" rx="42" ry="54" fill="#6D28D9" opacity="0.4"/>
  <path d="M72 40c-12 0-22 10-22 28 0 26 22 46 22 46s22-20 22-46c0-18-10-28-22-28z" fill="#A855F7" opacity="0.7"/>
  <path d="M52 70c12 8 28 8 40 0" stroke="#C084FC" stroke-width="6" stroke-linecap="round"/>
  <path d="M50 90c16 10 30 10 44 0" stroke="#F472B6" stroke-width="6" stroke-linecap="round"/>
  <circle cx="164" cy="52" r="24" fill="#1D4ED8" opacity="0.6"/>
  <path d="M164 32c-10 0-18 8-18 18 0 12 18 28 18 28s18-16 18-28c0-10-8-18-18-18z" fill="#60A5FA" opacity="0.8"/>
  <path d="M146 54c11 6 24 6 36 0" stroke="#3B82F6" stroke-width="4" stroke-linecap="round"/>
  <circle cx="188" cy="116" r="18" fill="#F59E0B" opacity="0.6"/>
  <path d="M188 100c-8 0-14 6-14 14 0 8 14 20 14 20s14-12 14-20c0-8-6-14-14-14z" fill="#FACC15" opacity="0.8"/>
  <path d="M176 120c8 4 16 4 24 0" stroke="#FCD34D" stroke-width="4" stroke-linecap="round"/>
</svg>
