<svg width="96" height="96" viewBox="0 0 96 96" fill="none" xmlns="http://www.w3.org/2000/svg">
  <rect width="96" height="96" rx="24" fill="#0F172A"/>
  <path d="M40 24c-7.6 0-14 6.4-14 15 0 10.8 10.4 22 14 22s14-11.2 14-22c0-8.6-6.4-15-14-15z" fill="#38BDF8"/>
  <path d="M56 28c7.6 0 14 6.4 14 15 0 10.8-10.4 22-14 22s-14-11.2-14-22c0-8.6 6.4-15 14-15z" fill="#F97316"/>
  <path d="M48 52c-2 2-6 3.4-10 3.4" stroke="#93C5FD" stroke-width="3" stroke-linecap="round"/>
  <path d="M48 52c2 2 6 3.4 10 3.4" stroke="#FDBA74" stroke-width="3" stroke-linecap="round"/>
  <path d="M38 64l4 14" stroke="#38BDF8" stroke-width="3" stroke-linecap="round"/>
  <path d="M58 64l-4 14" stroke="#F97316" stroke-width="3" stroke-linecap="round"/>
  <circle cx="32" cy="30" r="10" fill="#FACC15"/>
  <path d="M32 40c4 0 8-4 8-10" stroke="#FCD34D" stroke-width="3" stroke-linecap="round"/>
  <path d="M32 40l-4 12" stroke="#FACC15" stroke-width="3" stroke-linecap="round"/>
</svg>
