<svg width="240" height="160" viewBox="0 0 240 160" fill="none" xmlns="http://www.w3.org/2000/svg">
  <rect width="240" height="160" rx="32" fill="#FFF3EA"/>
  <circle cx="178" cy="52" r="28" fill="#FACC15"/>
  <path d="M72 68c4-8 12-12 20-12 8 0 16 4 20 12-6-2-12-2-20 2-8-4-14-4-20-2z" fill="#1F2937"/>
  <path d="M136 76c4-8 12-12 20-12 8 0 16 4 20 12-6-2-12-2-20 2-8-4-14-4-20-2z" fill="#1F2937"/>
  <path d="M54 44c3-6 9-9 15-9s12 3 15 9c-4-1.5-9-1.5-15 1.2-6-2.7-11-2.7-15-1.2z" fill="#1F2937"/>
  <path d="M116 52c3-6 9-9 15-9s12 3 15 9c-4-1.5-9-1.5-15 1.2-6-2.7-11-2.7-15-1.2z" fill="#1F2937"/>
  <path d="M68 108c18-6 38-6 56 0" stroke="#EA580C" stroke-width="8" stroke-linecap="round" opacity="0.3"/>
</svg>
