<svg width="96" height="96" viewBox="0 0 96 96" fill="none" xmlns="http://www.w3.org/2000/svg">
  <rect width="96" height="96" rx="24" fill="#FFF3EA"/>
  <path d="M47.1 26c-2.4 0-4.2 1.8-5.3 4.4-.6 1.6-1.4 4-2.2 5.5C36.2 34 32 34 28.6 36.6c-4.3 3.2-7.1 9.3-6.7 16.2.6 11 8.2 20.8 26.1 20.8 17.8 0 25.5-9.8 26.1-20.8.4-6.9-2.4-13-6.7-16.2-3.4-2.6-7.6-2.6-10.9-.7-.8-1.5-1.7-3.9-2.2-5.5-1-2.6-2.9-4.4-5.2-4.4z" fill="#FB8A1B"/>
  <path d="M40.8 28.4c2.7-3.8 9.2-4.4 12.8-.2" stroke="#84A63C" stroke-width="4" stroke-linecap="round"/>
  <path d="M58.5 27.5c2.9 1.2 5.2 3.3 6.1 6" stroke="#84A63C" stroke-width="4" stroke-linecap="round"/>
  <path d="M32.5 50.3c6.6-3.6 24.4-3.6 31 0" stroke="#E05E13" stroke-width="4" stroke-linecap="round"/>
  <path d="M30.6 60.7c7.2-4 27.6-4 34.8 0" stroke="#E05E13" stroke-width="4" stroke-linecap="round"/>
  <path d="M45.5 45.6c0 13.5-.2 21.6-3.3 27.8" stroke="#F78121" stroke-width="4" stroke-linecap="round"/>
  <path d="M51.1 45.6c0 13.5.2 21.6 3.3 27.8" stroke="#F78121" stroke-width="4" stroke-linecap="round"/>
  <path d="M34.7 59.8l6.3-4 1.6 8.5-7.9-4.5z" fill="#1F130C"/>
  <path d="M61.3 59.8l-6.2-4-1.6 8.5 7.8-4.5z" fill="#1F130C"/>
  <path d="M41.8 70.8c3.8 3.4 9.3 3.4 13.1 0" stroke="#1F130C" stroke-width="4" stroke-linecap="round"/>
</svg>
