<svg width="240" height="160" viewBox="0 0 240 160" fill="none" xmlns="http://www.w3.org/2000/svg">
  <rect width="240" height="160" rx="32" fill="#1F2937"/>
  <path d="M56 46l18 18-12 12-18-18" stroke="#6B7280" stroke-width="8" stroke-linecap="round" stroke-linejoin="round"/>
  <path d="M86 42c8-8 22-8 30 0 6 6 6 14 2 20l-18-18-14 14-4-4c-4-4-4-10 0-14z" fill="#3B82F6" opacity="0.3"/>
  <path d="M150 54l-12 26 14 14 26-12-28-28z" fill="#D97706" opacity="0.4"/>
  <path d="M166 46c6 6 6 16 0 22l-18-18c6-6 16-6 22 0z" fill="#1D4ED8" opacity="0.35"/>
  <path d="M118 106c18-10 40-10 58 0" stroke="#F59E0B" stroke-width="8" stroke-linecap="round" opacity="0.4"/>
</svg>
