<?xml version="1.0" encoding="UTF-8"?>
<svg id="Layer_1" xmlns="http://www.w3.org/2000/svg" version="1.1" viewBox="0 0 24 24">
  <!-- Generator: Adobe Illustrator 29.7.1, SVG Export Plug-In . SVG Version: 2.1.1 Build 8)  -->
  <defs>
    <style>
      .st0 {
        fill: #fff;
      }
    </style>
  </defs>
  <path class="st0" d="M19.82,10.46h.03c-.01-3.52,2.9-5.28,3.05-5.38-1.7-2.49-4.37-2.84-5.31-2.9-2.25-.24-4.39,1.36-5.52,1.36s-2.9-1.33-4.75-1.3c-2.43.03-4.68,1.41-5.92,3.59-2.53,4.41-.65,10.95,1.81,14.52,1.21,1.75,2.66,3.72,4.55,3.64,1.82-.07,2.51-1.19,4.7-1.19s2.84,1.19,4.77,1.16c1.99-.04,3.28-1.77,4.51-3.53,1.44-2.02,2.03-3.98,2.06-4.08-.04-.03-3.96-1.5-3.98-5.89Z"/>
</svg>