<svg xmlns="http://www.w3.org/2000/svg" viewBox="0 0 24 24" width="24" height="24" role="img">
  <g transform="translate(2, 0) scale(0.9)">
    <path fill="#ffffff" d="M11.6 0c-.8.1-1.87.6-2.52 1.33-.55.6-1.02 1.45-.84 2.3.88.05 1.9-.5 2.5-1.2.6-.7 1.08-1.68.86-2.43zM15.49 12.57c-.01-2.49 2.05-3.74 2.16-3.81-1.2-1.76-3.09-2.01-3.76-2.05-1.59-.17-3.11.96-3.91.96-.8 0-2.05-.94-3.36-.92-1.72.02-3.31 1-4.19 2.54-1.79 3.12-.46 7.75 1.28 10.28.86 1.24 1.88 2.63 3.22 2.58 1.29-.05 1.78-.84 3.33-.84 1.55 0 2.01.84 3.38.82 1.41-.03 2.32-1.25 3.19-2.5 1.02-1.43 1.44-2.82 1.46-2.89-.03-.02-2.8-1.06-2.82-4.17z"/>
  </g>
</svg>
