<svg xmlns="http://www.w3.org/2000/svg" viewBox="0 0 24 24" width="24" height="24" aria-hidden="true">
  <!-- White Google Calendar icon -->
  <path fill="#ffffff" d="M12 5.2c1.7 0 3.2.6 4.4 1.6l-1.8 1.8c-.7-.6-1.6-1-2.6-1-2.2 0-4 1.5-4.7 3.5L4.4 10C5.6 7.2 8.6 5.2 12 5.2z"/>
  <path fill="#ffffff" d="M4.4 10l2.9.9c-.2.6-.3 1.3-.3 2.1s.1 1.5.3 2.1l-2.9.9C4 14.9 3.8 14 3.8 13s.2-1.9.6-3z"/>
  <path fill="#ffffff" d="M12 20.8c-3.4 0-6.4-2-7.6-4.8l2.9-.9c.7 2.1 2.5 3.5 4.7 3.5 1.1 0 2.2-.4 3-.9l2 1.6c-1.4 1-3.2 1.5-5 1.5z"/>
  <path fill="#ffffff" d="M20.2 12c0-.5-.1-1-.2-1.5H12v3h4.7c-.2 1.1-.8 2-1.8 2.6l2 1.6c1.7-1.3 2.7-3.3 2.7-5.7z"/>
</svg>















