<svg width="96" height="96" viewBox="0 0 96 96" fill="none" xmlns="http://www.w3.org/2000/svg">
  <rect width="96" height="96" rx="24" fill="#F4FFFB"/>
  <path d="M48 18l6 16h16l-13 10 5 16-14-10-14 10 5-16-13-10h16l6-16z" fill="#14B8A6"/>
  <path d="M48 30l-4 10h-10l8 6-3 10 9-6 9 6-3-10 8-6H52l-4-10z" fill="#6366F1"/>
  <circle cx="48" cy="48" r="6" fill="#22D3EE"/>
  <path d="M24 70c8-6 16-6 24 0" stroke="#10B981" stroke-width="4" stroke-linecap="round"/>
  <path d="M48 70c8-6 16-6 24 0" stroke="#6366F1" stroke-width="4" stroke-linecap="round"/>
</svg>
