<svg width="96" height="96" viewBox="0 0 96 96" fill="none" xmlns="http://www.w3.org/2000/svg">
  <rect width="96" height="96" rx="24" fill="#3B0A2A"/>
  <rect x="20" y="30" width="56" height="40" rx="10" fill="#F472B6"/>
  <path d="M26 34l22 18c1.2 1 2.8 1 4 0l22-18" stroke="#F9A8D4" stroke-width="4" stroke-linecap="round"/>
  <path d="M26 70l18-16" stroke="#FDA4AF" stroke-width="4" stroke-linecap="round"/>
  <path d="M70 70L52 54" stroke="#FDA4AF" stroke-width="4" stroke-linecap="round"/>
  <path d="M48 40c-6.4-6-10-10.4-10-15.2 0-4.4 3.4-7.6 7.4-7.6 2.2 0 4.2 1 5.6 2.6 1.4-1.6 3.4-2.6 5.6-2.6 4 0 7.4 3.2 7.4 7.6 0 4.8-3.6 9.2-10 15.2-1.6 1.6-4 1.6-5.6 0z" fill="#FB7185"/>
</svg>
