<svg width="240" height="160" viewBox="0 0 240 160" fill="none" xmlns="http://www.w3.org/2000/svg">
  <rect width="240" height="160" rx="32" fill="#31071F"/>
  <path d="M62 60c-8-8-6-24 6-28 6-2 12 .8 16 5.8 4-5 10-7.8 16-5.8 12 4 14 20 6 28-7 7-22 20-22 20s-15-13-22-20z" fill="#FB7185"/>
  <path d="M150 38c-6-6-4-18 4-20 4-1.4 8 .6 10.4 4 2.6-3.4 6.4-5.4 10.4-4 8 2.6 10 14 4 20-5 5-15 14-15 14s-10-9-13.8-14z" fill="#F472B6"/>
  <path d="M124 102c-5.4-5.4-4-16 3.6-18.4 4-1.2 7.8.4 10.4 3.6 2.6-3.2 6.4-4.8 10.4-3.6 7.8 2.4 9.2 13 3.6 18.4C146 108 136 116 136 116s-10-8-12-14z" fill="#FDA4AF"/>
  <circle cx="98" cy="92" r="10" fill="#F9A8D4" opacity="0.5"/>
  <circle cx="174" cy="106" r="12" fill="#FEC6D8" opacity="0.4"/>
</svg>
