<svg width="48" height="48" viewBox="0 0 48 48" xmlns="http://www.w3.org/2000/svg" fill="none">
  <path d="M35.38 10.46a2.19 2.19 0 1 0 2.16 2.22v-.06a2.18 2.18 0 0 0-2.16-2.16Z" stroke="#4E4E50" stroke-width="2" stroke-linecap="round" stroke-linejoin="round"/>
  <path d="M40.55 5.5H7.45a2 2 0 0 0-1.95 2v33.1a2 2 0 0 0 2 2h33.1a2 2 0 0 0 2-2V7.45a2 2 0 0 0-2-1.95Z" stroke="#4E4E50" stroke-width="2" stroke-linecap="round" stroke-linejoin="round"/>
  <path d="M24 15.72a8.28 8.28 0 1 0 8.28 8.28A8.28 8.28 0 0 0 24 15.72Z" stroke="#4E4E50" stroke-width="2" stroke-linecap="round" stroke-linejoin="round"/>
</svg>