<svg width="240" height="160" viewBox="0 0 240 160" fill="none" xmlns="http://www.w3.org/2000/svg">
  <rect width="240" height="160" rx="32" fill="#ECFDF5"/>
  <g opacity="0.5">
    <path d="M64 54c-6-6-4-18 4-20 4-1.2 8 .6 10.6 4 2.4-3.4 6.2-5.2 10.2-4 8 2 10 12.8 4 18.8-4.8 5-15 14.2-15 14.2S68.6 59 64 54z" fill="#22C55E"/>
    <path d="M170 40c-8-8-6-24 6-28 6-2 12 .8 16 5.8 4-5 10-7.8 16-5.8 12 4 14 20 6 28-7 7-22 20-22 20s-15-13-22-20z" fill="#34D399"/>
    <path d="M120 86c-6-6-4-18 4-20 4-1.2 8 .6 10.6 4 2.4-3.4 6.2-5.2 10.2-4 8 2 10 12.8 4 18.8-4.8 5-15 14.2-15 14.2s-9.2-9.2-14.8-14.8z" fill="#10B981"/>
  </g>
  <path d="M90 120c12-6 28-6 40 0" stroke="#059669" stroke-width="6" stroke-linecap="round" opacity="0.4"/>
</svg>
